<svg width="28" height="28" viewBox="0 0 28 28" fill="none" xmlns="http://www.w3.org/2000/svg">
<circle cx="14" cy="14" r="13.5" stroke="#FFFFFC"/>
<path d="M20.3027 8.31103C19.1433 7.78816 17.9005 7.40168 16.6009 7.18192C16.5893 7.1797 16.5773 7.18113 16.5666 7.18602C16.5559 7.19091 16.5469 7.19901 16.541 7.2092C16.3819 7.48883 16.2045 7.85333 16.0803 8.14129C14.7019 7.93535 13.3006 7.93535 11.9223 8.14129C11.7838 7.82215 11.6277 7.51098 11.4547 7.2092C11.4488 7.19888 11.44 7.1906 11.4293 7.18545C11.4186 7.18031 11.4066 7.17855 11.3948 7.18041C10.096 7.40017 8.8532 7.78664 7.69302 8.31028C7.68304 8.31446 7.67457 8.3216 7.66877 8.33074C5.31052 11.7976 4.66412 15.1789 4.98164 18.5177C4.98252 18.5259 4.98506 18.5338 4.9891 18.541C4.99313 18.5482 4.99859 18.5544 5.00513 18.5594C6.38158 19.5615 7.91682 20.3249 9.54658 20.8176C9.55794 20.8211 9.57009 20.8211 9.58145 20.8176C9.5928 20.8141 9.60283 20.8072 9.61023 20.7979C9.96033 20.3281 10.2725 19.8318 10.5393 19.3104C10.5552 19.2801 10.54 19.2437 10.5082 19.2316C10.0187 19.0472 9.54437 18.8248 9.08963 18.5662C9.08146 18.5616 9.07457 18.555 9.06959 18.547C9.06461 18.539 9.06169 18.5299 9.06109 18.5205C9.06048 18.5111 9.06222 18.5017 9.06615 18.4932C9.07007 18.4846 9.07606 18.4772 9.08357 18.4715C9.17905 18.401 9.27453 18.3275 9.36547 18.254C9.37365 18.2474 9.38351 18.2432 9.39395 18.2419C9.40438 18.2405 9.41499 18.2421 9.42457 18.2465C12.4004 19.5832 15.6233 19.5832 18.5643 18.2465C18.5739 18.2419 18.5846 18.2401 18.5952 18.2413C18.6058 18.2425 18.6158 18.2466 18.6242 18.2533C18.7151 18.3275 18.8098 18.401 18.9061 18.4715C18.9137 18.4771 18.9197 18.4844 18.9238 18.4929C18.9278 18.5014 18.9297 18.5107 18.9293 18.5201C18.9288 18.5295 18.9261 18.5386 18.9212 18.5467C18.9164 18.5547 18.9096 18.5614 18.9015 18.5662C18.4484 18.8269 17.977 19.0474 17.4822 19.2308C17.4746 19.2336 17.4677 19.2379 17.4619 19.2436C17.4561 19.2492 17.4516 19.256 17.4486 19.2636C17.4457 19.2711 17.4444 19.2792 17.4448 19.2873C17.4452 19.2953 17.4474 19.3032 17.4511 19.3104C17.7239 19.831 18.0361 20.3266 18.3794 20.7972C18.3865 20.8068 18.3965 20.8141 18.4079 20.8179C18.4193 20.8217 18.4316 20.8218 18.4431 20.8184C20.0756 20.3271 21.6134 19.5633 22.9913 18.5594C22.9981 18.5547 23.0037 18.5486 23.0079 18.5416C23.0121 18.5345 23.0147 18.5267 23.0156 18.5185C23.3945 14.6583 22.3806 11.3043 20.3262 8.33225C20.3211 8.32259 20.3128 8.31506 20.3027 8.31103ZM10.9841 16.4846C10.0884 16.4846 9.34955 15.6745 9.34955 14.681C9.34955 13.6868 10.074 12.8775 10.9841 12.8775C11.901 12.8775 12.6331 13.6936 12.6187 14.681C12.6187 15.6753 11.8942 16.4846 10.9841 16.4846ZM17.0275 16.4846C16.131 16.4846 15.3929 15.6745 15.3929 14.681C15.3929 13.6868 16.1166 12.8775 17.0275 12.8775C17.9444 12.8775 18.6765 13.6936 18.6621 14.681C18.6621 15.6753 17.9452 16.4846 17.0275 16.4846Z" fill="white"/>
</svg>
