<svg width="33" height="34" viewBox="0 0 33 34" fill="none" xmlns="http://www.w3.org/2000/svg">
<g filter="url(#filter0_d_304_288)">
<path d="M20.4884 9.62511L20.6047 9.86091L20.8649 9.89872L28.0539 10.9435C28.054 10.9435 28.0542 10.9436 28.0544 10.9436C28.2813 10.9776 28.4311 11.1851 28.3978 11.4007L28.3978 11.4007L28.397 11.4063C28.3846 11.4934 28.3434 11.5745 28.279 11.6378C28.2789 11.6379 28.2788 11.638 28.2787 11.6381L23.0771 16.7094L22.8889 16.8929L22.9334 17.152L24.1625 24.3142L24.1625 24.3146C24.2004 24.534 24.053 24.7436 23.8312 24.7819L23.8304 24.782C23.7423 24.7973 23.6515 24.7827 23.5761 24.7426L23.5739 24.7414L17.1423 21.36L16.9097 21.2377L16.677 21.36L10.2454 24.7414L10.2447 24.7418C10.1778 24.7772 10.1023 24.793 10.0269 24.7877C9.9514 24.7823 9.87896 24.7559 9.81775 24.7114C9.75654 24.6669 9.70901 24.6062 9.68056 24.5361C9.6521 24.466 9.64385 24.3894 9.65674 24.3148L9.65686 24.3142L10.886 17.152L10.9304 16.8929L10.7422 16.7094L5.53976 11.6372L5.53973 11.6372C5.46236 11.5618 5.41809 11.4587 5.41666 11.3507C5.41523 11.2429 5.45653 11.139 5.53148 11.0616C5.59472 10.9974 5.67566 10.9563 5.7627 10.9439L5.7639 10.9437L12.9544 9.89872L13.2146 9.86091L13.3309 9.62511L16.5441 3.11102C16.5443 3.11067 16.5444 3.11033 16.5446 3.10998C16.6464 2.90787 16.8916 2.82693 17.0905 2.92511L17.0911 2.9254C17.1705 2.96446 17.2348 3.02878 17.2738 3.10817L17.274 3.1086L20.4884 9.62511Z" fill="white" stroke="#FFE600"/>
</g>
<defs>
<filter id="filter0_d_304_288" x="-1.59033" y="0.449219" width="37" height="37" filterUnits="userSpaceOnUse" color-interpolation-filters="sRGB">
<feFlood flood-opacity="0" result="BackgroundImageFix"/>
<feColorMatrix in="SourceAlpha" type="matrix" values="0 0 0 0 0 0 0 0 0 0 0 0 0 0 0 0 0 0 127 0" result="hardAlpha"/>
<feOffset dy="4"/>
<feGaussianBlur stdDeviation="2"/>
<feComposite in2="hardAlpha" operator="out"/>
<feColorMatrix type="matrix" values="0 0 0 0 0 0 0 0 0 0 0 0 0 0 0 0 0 0 0.25 0"/>
<feBlend mode="normal" in2="BackgroundImageFix" result="effect1_dropShadow_304_288"/>
<feBlend mode="normal" in="SourceGraphic" in2="effect1_dropShadow_304_288" result="shape"/>
</filter>
</defs>
</svg>
