<svg width="28" height="28" viewBox="0 0 28 28" fill="none" xmlns="http://www.w3.org/2000/svg">
<circle cx="14" cy="14" r="13.5" stroke="#FFFFFC"/>
<path d="M21.8684 10.7669C21.8595 10.1042 21.7355 9.44808 21.5017 8.8279C21.299 8.30478 20.9895 7.8297 20.5928 7.433C20.1961 7.0363 19.721 6.72672 19.1979 6.52402C18.5857 6.29421 17.9389 6.16995 17.2851 6.15652C16.4434 6.1189 16.1765 6.1084 14.0397 6.1084C11.903 6.1084 11.6291 6.1084 10.7935 6.15652C10.14 6.17005 9.49354 6.29431 8.88161 6.52402C8.35841 6.72658 7.88325 7.03611 7.48654 7.43283C7.08982 7.82954 6.78029 8.3047 6.57773 8.8279C6.34746 9.43964 6.22347 10.0862 6.21111 10.7398C6.17348 11.5824 6.16211 11.8493 6.16211 13.986C6.16211 16.1228 6.16211 16.3958 6.21111 17.2323C6.22423 17.8868 6.34761 18.5325 6.57773 19.1459C6.78063 19.6689 7.09039 20.1439 7.48724 20.5405C7.88409 20.937 8.35929 21.2464 8.88248 21.4489C9.49274 21.6879 10.1393 21.8211 10.7944 21.8426C11.637 21.8803 11.9039 21.8916 14.0406 21.8916C16.1774 21.8916 16.4512 21.8916 17.2869 21.8426C17.9406 21.8298 18.5874 21.7058 19.1996 21.476C19.7226 21.2731 20.1976 20.9634 20.5942 20.5668C20.9909 20.1701 21.3006 19.6951 21.5035 19.1721C21.7336 18.5596 21.857 17.9139 21.8701 17.2585C21.9077 16.4168 21.9191 16.1499 21.9191 14.0123C21.9174 11.8755 21.9174 11.6043 21.8684 10.7669ZM14.0345 18.0268C11.7997 18.0268 9.98936 16.2164 9.98936 13.9816C9.98936 11.7469 11.7997 9.93652 14.0345 9.93652C15.1073 9.93652 16.1362 10.3627 16.8948 11.1213C17.6534 11.8799 18.0796 12.9088 18.0796 13.9816C18.0796 15.0545 17.6534 16.0834 16.8948 16.842C16.1362 17.6006 15.1073 18.0268 14.0345 18.0268ZM18.2406 10.7301C18.1167 10.7303 17.994 10.7059 17.8795 10.6586C17.765 10.6112 17.661 10.5417 17.5734 10.4541C17.4858 10.3665 17.4163 10.2625 17.3689 10.148C17.3216 10.0335 17.2972 9.9108 17.2974 9.7869C17.2974 9.66309 17.3217 9.54049 17.3691 9.4261C17.4165 9.31171 17.486 9.20778 17.5735 9.12023C17.6611 9.03268 17.765 8.96323 17.8794 8.91585C17.9938 8.86847 18.1164 8.84409 18.2402 8.84409C18.364 8.84409 18.4866 8.86847 18.601 8.91585C18.7154 8.96323 18.8193 9.03268 18.9068 9.12023C18.9944 9.20778 19.0638 9.31171 19.1112 9.4261C19.1586 9.54049 19.183 9.66309 19.183 9.7869C19.183 10.3084 18.7612 10.7301 18.2406 10.7301Z" fill="white"/>
<path d="M14.0344 16.6097C15.4856 16.6097 16.662 15.4333 16.662 13.9821C16.662 12.5309 15.4856 11.3545 14.0344 11.3545C12.5832 11.3545 11.4067 12.5309 11.4067 13.9821C11.4067 15.4333 12.5832 16.6097 14.0344 16.6097Z" fill="white"/>
</svg>
