<svg width="30" height="30" viewBox="0 0 30 30" fill="none" xmlns="http://www.w3.org/2000/svg">
<g id="ant-design:star-filled">
<path id="Vector" d="M26.6996 10.7121L19.5091 9.6671L16.2947 3.1506C16.2069 2.97218 16.0625 2.82774 15.8841 2.73995C15.4366 2.51905 14.8929 2.70314 14.6691 3.1506L11.4548 9.6671L4.26426 10.7121C4.06602 10.7404 3.88477 10.8339 3.746 10.9755C3.57823 11.1479 3.48579 11.3799 3.48897 11.6205C3.49216 11.861 3.59072 12.0905 3.76299 12.2584L8.96543 17.3306L7.73633 24.4928C7.70751 24.6594 7.72594 24.8307 7.78955 24.9874C7.85315 25.1441 7.95938 25.2798 8.09619 25.3791C8.233 25.4785 8.39491 25.5375 8.56356 25.5496C8.73222 25.5616 8.90087 25.5261 9.05039 25.4472L15.4819 22.0657L21.9135 25.4472C22.0891 25.5406 22.293 25.5718 22.4884 25.5378C22.9812 25.4528 23.3125 24.9856 23.2275 24.4928L21.9984 17.3306L27.2009 12.2584C27.3425 12.1196 27.4359 11.9384 27.4643 11.7401C27.5407 11.2445 27.1952 10.7858 26.6996 10.7121Z" fill="#FFE600"/>
</g>
</svg>
