<svg width="28" height="28" viewBox="0 0 28 28" fill="none" xmlns="http://www.w3.org/2000/svg">
<circle cx="14" cy="14" r="13.5" stroke="#FFFFFC"/>
<g clip-path="url(#clip0_304_496)">
<path d="M22.2475 8.9972C21.656 9.25928 21.0206 9.43636 20.3527 9.51641C21.0419 9.10401 21.5575 8.45494 21.8034 7.69032C21.1558 8.07494 20.4471 8.34567 19.7081 8.49074C19.2111 7.9601 18.5529 7.60839 17.8355 7.4902C17.1181 7.37201 16.3818 7.49397 15.7409 7.83713C15.1 8.18029 14.5902 8.72545 14.2909 9.38799C13.9915 10.0505 13.9193 10.7934 14.0854 11.5012C12.7733 11.4353 11.4898 11.0943 10.318 10.5002C9.1463 9.90617 8.11258 9.0724 7.28394 8.05299C7.0006 8.54174 6.83769 9.10841 6.83769 9.71191C6.83737 10.2552 6.97116 10.7902 7.22719 11.2693C7.48321 11.7485 7.85355 12.1571 8.30535 12.4588C7.78138 12.4422 7.26897 12.3006 6.81077 12.0459V12.0884C6.81072 12.8503 7.07429 13.5889 7.55678 14.1787C8.03926 14.7684 8.71093 15.1731 9.45781 15.324C8.97174 15.4556 8.46214 15.475 7.96748 15.3807C8.17821 16.0363 8.58868 16.6097 9.14145 17.0204C9.69421 17.4312 10.3616 17.6588 11.0501 17.6714C9.88128 18.589 8.43773 19.0868 6.95173 19.0846C6.6885 19.0846 6.42549 19.0693 6.16406 19.0385C7.67244 20.0084 9.4283 20.5231 11.2216 20.5211C17.292 20.5211 20.6105 15.4933 20.6105 11.1328C20.6105 10.9912 20.607 10.8481 20.6006 10.7064C21.2461 10.2396 21.8033 9.66154 22.2461 8.99932L22.2475 8.9972Z" fill="white"/>
</g>
<defs>
<clipPath id="clip0_304_496">
<rect width="17" height="17" fill="white" transform="translate(5.5 5.5)"/>
</clipPath>
</defs>
</svg>
